<?xml version="1.0" standalone="no"?><!DOCTYPE svg PUBLIC "-//W3C//DTD SVG 1.1//EN" "http://www.w3.org/Graphics/SVG/1.1/DTD/svg11.dtd"><svg t="1657285063250" class="icon" viewBox="0 0 1024 1024" version="1.1" xmlns="http://www.w3.org/2000/svg" p-id="7347" xmlns:xlink="http://www.w3.org/1999/xlink" width="200" height="200"><defs><style type="text/css">@font-face { font-family: feedback-iconfont; src: url("//at.alicdn.com/t/font_1031158_u69w8yhxdu.woff2?t=1630033759944") format("woff2"), url("//at.alicdn.com/t/font_1031158_u69w8yhxdu.woff?t=1630033759944") format("woff"), url("//at.alicdn.com/t/font_1031158_u69w8yhxdu.ttf?t=1630033759944") format("truetype"); }
</style></defs><path d="M957.86301 318.291616l-37.647396-30.997004a48.761905 48.761905 0 0 0-68.678739 6.650391L486.097304 737.918712a24.380952 24.380952 0 0 0-5.448513 17.845026l6.650391 68.678739a24.380952 24.380952 0 0 0 26.624458 21.919964l68.678739-6.650391a24.380952 24.380952 0 0 0 16.471451-8.767986l365.485357-443.962262a48.761905 48.761905 0 0 0-6.696177-68.690186z" p-id="7348"></path><path d="M852.887557 254.008317v-180.854013A73.142857 73.142857 0 0 0 779.721807 0H121.458985A73.142857 73.142857 0 0 0 48.316128 73.142857v877.714286a73.142857 73.142857 0 0 0 73.142857 73.142857h658.262822a73.142857 73.142857 0 0 0 73.142857-73.142857V560.887816l-250.562933 304.315493a24.380952 24.380952 0 0 1-16.471451 8.767985l-78.682942 7.634787a48.761905 48.761905 0 0 1-53.191684-43.828482l-7.62334-78.682942a24.380952 24.380952 0 0 1 5.448514-17.845026z m-694.799911-83.34165h536.380953a36.571429 36.571429 0 0 1 0 73.142857H158.030414a36.628661 36.628661 0 1 1 0-73.142857z m219.428572 633.904762H158.030414a36.628661 36.628661 0 0 1 0-73.142858h219.428571a36.628661 36.628661 0 0 1 0 73.142858zM121.458985 581.079365a36.628661 36.628661 0 0 1 36.571429-36.571428h146.285714a36.628661 36.628661 0 0 1 0 73.142857H158.030414a36.628661 36.628661 0 0 1-36.571429-36.571429zM158.030414 430.730159a36.628661 36.628661 0 1 1 0-73.142857h438.857143a36.628661 36.628661 0 1 1 0 73.142857z" p-id="7349"></path></svg>