<?xml version="1.0" standalone="no"?><!DOCTYPE svg PUBLIC "-//W3C//DTD SVG 1.1//EN" "http://www.w3.org/Graphics/SVG/1.1/DTD/svg11.dtd"><svg t="1657285436446" class="icon" viewBox="0 0 1055 1024" version="1.1" xmlns="http://www.w3.org/2000/svg" p-id="8171" xmlns:xlink="http://www.w3.org/1999/xlink" width="206.0546875" height="200"><defs><style type="text/css">@font-face { font-family: feedback-iconfont; src: url("//at.alicdn.com/t/font_1031158_u69w8yhxdu.woff2?t=1630033759944") format("woff2"), url("//at.alicdn.com/t/font_1031158_u69w8yhxdu.woff?t=1630033759944") format("woff"), url("//at.alicdn.com/t/font_1031158_u69w8yhxdu.ttf?t=1630033759944") format("truetype"); }
</style></defs><path d="M93.090909 0h868.848485a93.090909 93.090909 0 0 1 93.090909 93.090909v620.606061a93.090909 93.090909 0 0 1-93.090909 93.090909H93.090909a93.090909 93.090909 0 0 1-93.090909-93.090909V93.090909a93.090909 93.090909 0 0 1 93.090909-93.090909z m0 62.060606a31.030303 31.030303 0 0 0-31.030303 31.030303v620.606061a31.030303 31.030303 0 0 0 31.030303 31.030303h868.848485a31.030303 31.030303 0 0 0 31.030303-31.030303V93.090909a31.030303 31.030303 0 0 0-31.030303-31.030303H93.090909z" p-id="8172"></path><path d="M186.181818 279.272727m31.030303 0l620.606061 0q31.030303 0 31.030303 31.030303l0 0q0 31.030303-31.030303 31.030303l-620.606061 0q-31.030303 0-31.030303-31.030303l0 0q0-31.030303 31.030303-31.030303Z" p-id="8173"></path><path d="M186.181818 496.484848m31.030303 0l620.606061 0q31.030303 0 31.030303 31.030304l0 0q0 31.030303-31.030303 31.030303l-620.606061 0q-31.030303 0-31.030303-31.030303l0 0q0-31.030303 31.030303-31.030304Z" p-id="8174"></path><path d="M310.30303 837.818182m31.030303 0l372.363637 0q31.030303 0 31.030303 31.030303l0 0q0 31.030303-31.030303 31.030303l-372.363637 0q-31.030303 0-31.030303-31.030303l0 0q0-31.030303 31.030303-31.030303Z" p-id="8175"></path><path d="M124.121212 961.939394m31.030303 0l744.727273 0q31.030303 0 31.030303 31.030303l0 0q0 31.030303-31.030303 31.030303l-744.727273 0q-31.030303 0-31.030303-31.030303l0 0q0-31.030303 31.030303-31.030303Z" p-id="8176"></path><path d="M310.30303 403.393939m0-31.030303l0-124.121212q0-31.030303 31.030303-31.030303l0 0q31.030303 0 31.030303 31.030303l0 124.121212q0 31.030303-31.030303 31.030303l0 0q-31.030303 0-31.030303-31.030303Z" p-id="8177"></path><path d="M682.666667 620.606061m0-31.030303l0-124.121213q0-31.030303 31.030303-31.030303l0 0q31.030303 0 31.030303 31.030303l0 124.121213q0 31.030303-31.030303 31.030303l0 0q-31.030303 0-31.030303-31.030303Z" p-id="8178"></path></svg>