<?xml version="1.0" standalone="no"?><!DOCTYPE svg PUBLIC "-//W3C//DTD SVG 1.1//EN" "http://www.w3.org/Graphics/SVG/1.1/DTD/svg11.dtd"><svg t="1657251602771" class="icon" viewBox="0 0 1024 1024" version="1.1" xmlns="http://www.w3.org/2000/svg" p-id="2279" xmlns:xlink="http://www.w3.org/1999/xlink" width="200" height="200"><defs><style type="text/css"></style></defs><path d="M872.3 899.1h-718c-14.3 0-26-11.7-26-26v-718c0-14.3 11.7-26 26-26h718c14.3 0 26 11.7 26 26v718c0 14.3-11.6 26-26 26z m-711.9-32h706v-706h-706v706z" fill="" p-id="2280"></path><path d="M252.8 249.9l166.1 2.1c8.8 0.1 15.9 7.4 15.8 16.2-0.1 8.8-7.4 15.9-16.2 15.8l-134.1-1.7-1.7 134.1c-0.1 8.8-7.4 15.9-16.2 15.8-8.8-0.1-15.9-7.4-15.8-16.2l2.1-166.1z" fill="" p-id="2281"></path><path d="M301.4 278l180.4 184.6c6.2 6.3 6.1 16.5-0.3 22.6-6.3 6.2-16.5 6.1-22.6-0.3L278.5 300.4c-6.2-6.3-6.1-16.5 0.3-22.6 6.3-6.2 16.4-6.1 22.6 0.2zM756.6 590.7c8.8 0 16 7.2 15.9 16.1l-0.5 166-166.1-0.5c-8.8 0-16-7.2-15.9-16.1 0-8.8 7.2-16 16.1-15.9l134.1 0.4 0.4-134.1c0-8.8 7.2-16 16-15.9z" fill="" p-id="2282"></path><path d="M564.7 542.1L761 737.8l-22.6 22.7-196.2-195.8c-6.3-6.2-6.3-16.4 0-22.6 6.2-6.3 16.3-6.3 22.5 0z" fill="" p-id="2283"></path></svg>