<?xml version="1.0" standalone="no"?><!DOCTYPE svg PUBLIC "-//W3C//DTD SVG 1.1//EN" "http://www.w3.org/Graphics/SVG/1.1/DTD/svg11.dtd"><svg t="1657271515484" class="icon" viewBox="0 0 1024 1024" version="1.1" xmlns="http://www.w3.org/2000/svg" p-id="9119" xmlns:xlink="http://www.w3.org/1999/xlink" width="200" height="200"><defs><style type="text/css">@font-face { font-family: feedback-iconfont; src: url("//at.alicdn.com/t/font_1031158_u69w8yhxdu.woff2?t=1630033759944") format("woff2"), url("//at.alicdn.com/t/font_1031158_u69w8yhxdu.woff?t=1630033759944") format("woff"), url("//at.alicdn.com/t/font_1031158_u69w8yhxdu.ttf?t=1630033759944") format("truetype"); }
</style></defs><path d="M845.2 757.3H416c-9.9 0-18-8.1-18-18v-4c0-9.9 8.1-18 18-18h429.2c9.9 0 18 8.1 18 18v4c0 9.9-8.1 18-18 18zM845.2 506.3H416c-9.9 0-18-8.1-18-18v-4c0-9.9 8.1-18 18-18h429.2c9.9 0 18 8.1 18 18v4c0 9.9-8.1 18-18 18z" fill="#888888" p-id="9120"></path><path d="M916.8 974H346.2c-37.6 0-68.2-34.7-68.2-77.3V115.4c0-42.6 30.6-77.3 68.2-77.3h570.6c37.6 0 68.2 34.7 68.2 77.3v781.3c0 42.6-30.6 77.3-68.2 77.3zM346.2 74.9c-19.7 0-35.7 18.2-35.7 40.5v781.3c0 22.3 16 40.5 35.7 40.5h570.6c19.7 0 35.7-18.2 35.7-40.5V115.4c0-22.3-16-40.5-35.7-40.5H346.2zM129 964.2c-11 0-20-9-20-20V87c0-11 9-20 20-20s20 9 20 20v857.2c0 11-9 20-20 20z" fill="#888888" p-id="9121"></path><path d="M850.9 240.3h-4.1l-79.9-34.6-79.9 34.6h-4.1c-27.6 0-50-20.1-50-44.8V81.8c0-24.7 22.4-44.8 50-44.8h168c27.6 0 50 20.1 50 44.8v113.7c0 24.7-22.5 44.8-50 44.8z m-84.1-78.2l87.4 37.9c4.3-0.9 6.7-3.5 6.7-4.5V81.8c0-1.2-3.5-4.8-10-4.8h-168c-6.5 0-10 3.6-10 4.8v113.7c0 1 2.3 3.5 6.7 4.5l87.2-37.9z" fill="#888888" p-id="9122"></path></svg>